<svg width="400" height="400" viewBox="0 0 400 400" fill="none" xmlns="http://www.w3.org/2000/svg">
  <rect width="400" height="400" rx="28" fill="#f5f7fa"/>
  <g>
    <rect x="60" y="60" width="60" height="60" fill="#1976d2" fill-opacity="0.9"/>
    <rect x="120" y="60" width="60" height="60" fill="#1976d2" fill-opacity="0.6"/>
    <rect x="180" y="60" width="60" height="60" fill="#1976d2" fill-opacity="0.3"/>
    <rect x="240" y="60" width="60" height="60" fill="#1976d2" fill-opacity="0.1"/>
    <rect x="60" y="120" width="60" height="60" fill="#1976d2" fill-opacity="0.6"/>
    <rect x="120" y="120" width="60" height="60" fill="#1976d2" fill-opacity="0.9"/>
    <rect x="180" y="120" width="60" height="60" fill="#1976d2" fill-opacity="0.5"/>
    <rect x="240" y="120" width="60" height="60" fill="#1976d2" fill-opacity="0.2"/>
    <rect x="60" y="180" width="60" height="60" fill="#1976d2" fill-opacity="0.3"/>
    <rect x="120" y="180" width="60" height="60" fill="#1976d2" fill-opacity="0.5"/>
    <rect x="180" y="180" width="60" height="60" fill="#1976d2" fill-opacity="0.9"/>
    <rect x="240" y="180" width="60" height="60" fill="#1976d2" fill-opacity="0.4"/>
    <rect x="60" y="240" width="60" height="60" fill="#1976d2" fill-opacity="0.1"/>
    <rect x="120" y="240" width="60" height="60" fill="#1976d2" fill-opacity="0.2"/>
    <rect x="180" y="240" width="60" height="60" fill="#1976d2" fill-opacity="0.4"/>
    <rect x="240" y="240" width="60" height="60" fill="#1976d2" fill-opacity="0.9"/>
  </g>
  <text x="200" y="385" font-size="18" text-anchor="middle" fill="#444">Correlation Heatmap</text>
</svg>
